<svg width="410" height="410" viewBox="0 0 410 410" fill="none" xmlns="http://www.w3.org/2000/svg">
<path d="M388.333 205C388.333 103.748 306.252 21.6667 205 21.6667C103.748 21.6667 21.6667 103.748 21.6667 205C21.6667 306.252 103.748 388.333 205 388.333V405C94.543 405 5 315.457 5 205C5 94.543 94.543 5 205 5C315.457 5 405 94.543 405 205C405 315.457 315.457 405 205 405V388.333C306.252 388.333 388.333 306.252 388.333 205Z" fill="#F5F5F3"/>
<path d="M75.6164 138.333C82.5311 140.548 98.4323 138.315 106.577 138.447C126.081 138.764 150.491 144.239 169.585 140.469C176.135 143.159 181.034 147.858 187.841 149.819C193.373 151.412 199.024 147.282 204.413 147.221L206.451 148.558C211.859 149.016 217.663 147.949 222.994 148.129C225.524 148.215 229.569 149.887 231.973 149.925C237.3 150.01 239.694 147.796 243.039 144.23C245.564 141.536 251.407 142.286 255.012 142.438C257.295 144.094 259.649 146.216 262.409 146.345C266.487 146.618 271.506 144.093 275.453 144.24C285.013 144.597 294.456 145.079 304.031 144.916C307.39 144.899 311.79 146.111 315.033 145.984C328.097 145.474 338.999 147.599 351.611 150.522C353.612 147.77 357.408 143.842 360.863 147.484C362.231 148.929 361.522 151.941 361.28 153.844C375.466 154.345 371.202 163.116 370.608 174.555C362.08 177.23 364.629 179.941 363.764 187.7C362.708 197.14 361.446 207.596 357.946 216.468C356.956 218.971 353.712 222.443 352.737 225.226C351.781 237.005 346.175 237.601 340.201 245.256C341.015 246.064 341.644 246.754 342.408 247.602L342.262 248.57L341 249.235C339.27 248.877 339.683 248.827 338.179 247.337C336.56 247.127 321.525 254.862 317.069 254.877C304.186 254.92 287.351 256.224 276.162 248.713C275.458 246.706 277.118 245.809 276.927 244.555C275.599 235.816 268.881 242.784 266.95 242.699C263.576 239.688 254.157 233.394 252.941 230.727C254.479 227.712 253.675 228.211 251.457 224.727C248.48 220.154 244.714 214.853 244.297 209.204C244.015 205.354 244.281 203.061 243.175 199.227C242.969 197.957 242.532 196.371 242.215 195.088C239.753 187.756 237.443 187.327 235.253 182.013C236.742 175.99 236.264 168.356 229.466 164.368C226.57 163.432 221.905 164.117 219.092 163.985C209.802 163.55 201.33 162.879 192.112 164.825C190.391 165.188 185.349 165.684 184.066 166.771C180.593 169.714 179.711 179.267 178.743 183.721C174.953 187.094 174.099 188.516 171.857 193.089C169.208 198.271 166.218 196.207 163.99 199.068L164.353 199.802C166.438 200.359 167.225 200.489 169.375 200.69L169.608 201.331L168.78 202.214C166.471 206.566 163.052 218.352 160.155 220.275C154.701 219.133 152.611 220.446 149.53 225.417C149.479 227.595 149.953 227.102 151.566 229.465C149.77 240.053 134.372 249.381 124.194 249.801C120.077 254.636 118.565 253.099 112.791 253.98C99.9414 256.091 87.7703 254.836 75.6616 251.042C59.7157 246.047 52.1276 235.05 50.5637 218.797C50.0332 213.287 45.2174 211.393 47.5813 203.995C44.1327 194.349 44.6456 189.38 43.3624 179.426C44.8835 176.508 45.7952 173.107 46.7647 169.94C43.8421 165.749 42.6056 164.648 38.3333 161.859C40.5534 156.473 40.7762 151.583 41.4078 145.818L42.6584 145.726C48.149 145.375 51.8641 144.596 57.2909 143.575L62.5221 147.536C67.5471 142.674 69.1854 140.93 75.6164 138.333Z" fill="#F5F5F3"/>
<path d="M162.32 156.011C162.737 156.29 163.157 156.565 163.58 156.835C165.492 158.071 166.747 159.022 168.844 158.564C170.368 162.58 170.543 172.262 169.286 175.669C168.751 176.806 167.85 178.572 167.452 179.708C163.714 181.579 159.802 183.638 156.835 186.671C151.04 192.594 151.529 194.415 143.989 198.71C145.688 200.894 146.708 202.188 148.66 204.173C144.131 213.492 139.16 212.847 135.394 219.35C133.571 219.148 133.211 219.449 132.126 218.452L131.438 217.745C130.967 215.185 130.387 214.403 129.118 212.213C127.606 209.048 127.39 207.291 126.889 203.91C125.436 203.701 123.776 203.799 122.283 203.813C120.409 202.975 121.002 202.933 119.198 203.145C117.543 204.316 116.892 206.353 115.991 208.285C113.464 207.094 110.396 205.613 108.8 203.314C108.109 199.803 108.943 202.553 109.505 199.597C108.072 198.869 106.895 198.885 105.296 198.718C104.589 199.463 103.994 200.134 103.217 200.808C101.552 201.57 101.318 201.546 99.6634 200.926L96.8851 199.882L95.2167 198.144C97.0636 194.907 101.294 189.912 103.67 186.161C102.757 184.52 102.236 183.897 102.044 182.081C102.537 180.126 102.722 179.92 104.285 178.654L104.247 177.821C106.508 177.063 111.81 170.4 116.092 167.319C117.169 167.829 119.531 169.117 120.661 168.802C122.39 167.427 123.423 167.18 125.451 166.422L127.029 168.247L130.177 168.283C132.387 167.994 135.823 165.905 137.898 164.787C139.527 166.228 141.424 167.218 143.306 168.324C146.733 164.743 148.667 162.525 152.962 160.036C153.847 160.261 153.959 160.369 154.853 160.372C157.385 158.994 159.876 157.54 162.32 156.011Z" fill="#F5F5F3"/>
<path d="M125.451 166.422L127.029 168.247L130.177 168.283C129.126 168.745 128.477 169.008 127.484 169.597L128.858 171.218C125.277 172.485 125.689 173.218 124.495 176.775C122.6 178.151 121.635 180.316 120.959 182.492L121.164 183.401C118.424 184.136 117.437 187.59 117.113 190.295L117.704 191.151L119.268 190.941C114.889 196.98 111.701 193.145 105.296 198.718C104.589 199.463 103.994 200.134 103.217 200.808C101.552 201.57 101.318 201.546 99.6634 200.926L96.8851 199.882L95.2167 198.144C97.0636 194.907 101.294 189.912 103.67 186.161C102.757 184.52 102.236 183.897 102.044 182.081C102.537 180.126 102.722 179.92 104.285 178.654L104.247 177.821C106.508 177.063 111.81 170.4 116.092 167.319C117.169 167.829 119.531 169.117 120.661 168.802C122.39 167.427 123.423 167.18 125.451 166.422Z" fill="#F5F5F3"/>
<path d="M133.345 179.051C135.592 178.88 138.523 180.134 139.647 182.22C139.595 184.019 139.464 183.588 138.04 185.353C134.158 186.207 131.488 183.009 133.345 179.051Z" fill="#F5F5F3"/>
<path d="M316.733 163.942C323.627 169.199 324.024 173.582 326.267 175.427L326.232 176.811L327.112 177.662L326.845 179.484C329.576 182.813 331.346 180.645 333.438 184.017L331.361 185.159C331.728 185.899 332.658 187.919 333.09 188.457L331.315 190.073C330.204 189.624 329.938 189.111 329.048 188.194C326.488 190.448 325.216 190.019 322.214 188.976C320.097 190.884 318.799 191.535 317.633 194.023L317.869 195.443C316.325 197.076 315.757 197.183 313.65 198.155C312.624 200.041 312.323 200.378 311.971 202.442C313.897 204.621 314.294 205.42 314.616 208.339C312.926 210.445 311.035 212.586 309.763 214.945C308.481 216.124 306.293 219.42 305.564 219.742C304.403 219.417 304.257 219.423 303.161 218.928C298.182 218.44 299.53 215.996 295.376 212.715L294.21 212.942C292.596 214.536 291.912 216.77 291.007 218.926C290.494 220.219 290.217 220.236 289.071 221.026L288.754 222.408C285.445 219.985 283.253 220.957 280.019 216.443C277.802 214.693 275.514 212.409 273.432 210.433C274.297 208.365 274.915 206.498 275.624 204.385C275.132 203.256 274.976 200.833 274.83 199.497C275.956 197.035 277.983 195.516 280.034 193.915L280.457 192.801C281.986 192.455 284.062 191.826 285.546 192.026L287.643 190.793C288.774 189.779 289.393 188.753 290.257 187.513C290.278 186.367 291.972 185.075 293.073 183.704C293.526 177.938 287.688 180.833 285.993 178.831C287.457 176.958 289.096 176.927 291.711 176.03C297.277 185.171 294.522 178.026 300.993 181.291L301.069 178.525C303.09 176.029 306.002 172.248 307.123 169.337L308.375 167.543C312.222 166.588 313.343 166.296 316.733 163.942Z" fill="#F5F5F3"/>
<path d="M316.733 163.942C323.627 169.199 324.024 173.582 326.267 175.427L326.232 176.811L327.112 177.662L326.845 179.484C329.576 182.813 331.346 180.645 333.438 184.017L331.361 185.159C331.728 185.899 332.658 187.919 333.09 188.457L331.315 190.073C330.204 189.624 329.938 189.111 329.048 188.194C326.488 190.448 325.216 190.019 322.214 188.976C320.097 190.884 318.799 191.535 317.633 194.023C317.487 189.704 317.482 190.312 321.344 189.059L321.183 188.208C319.277 185.926 317.286 184.921 314.229 184.785C310.226 186.354 304.709 182.986 300.993 181.291L301.069 178.525C303.09 176.029 306.002 172.248 307.123 169.337L308.375 167.543C312.222 166.588 313.343 166.296 316.733 163.942Z" fill="#F5F5F3"/>
<path d="M314.229 184.785C316.914 182.215 318.322 177.846 320.469 177.339C322.325 177.869 322.677 178.436 324.145 179.821C324.945 179.598 325.99 179.561 326.845 179.484C329.576 182.813 331.346 180.645 333.438 184.017L331.361 185.159C331.728 185.899 332.658 187.919 333.09 188.457L331.315 190.073C330.204 189.624 329.938 189.111 329.048 188.194C326.488 190.448 325.216 190.019 322.214 188.976C320.097 190.884 318.799 191.535 317.633 194.023C317.487 189.704 317.482 190.312 321.344 189.059L321.183 188.208C319.277 185.926 317.286 184.921 314.229 184.785Z" fill="#F5F5F3"/>
<path d="M292.239 205.897C294.275 205.192 294.919 204.168 296.307 202.624L297.323 202.354C301.084 206.6 297.423 207.593 304.242 211.845C298.545 215.336 296.488 211.119 294.069 207.11C294.084 207.13 292.415 206.014 292.239 205.897Z" fill="#F5F5F3"/>
<path d="M313.65 198.155C311.01 197.345 310.236 196.778 309.522 194.073C309.869 192.092 309.456 192.944 310.849 191.445C313.846 190.632 316.371 192.96 317.869 195.443C316.325 197.076 315.757 197.183 313.65 198.155Z" fill="#F5F5F3"/>
<path d="M294.2 186.818C296.262 188.452 296.795 189.85 295.92 192.308C294.054 191.985 293.929 191.59 293.154 190.041C293.315 187.72 292.968 188.748 294.2 186.818Z" fill="#F5F5F3"/>
<path d="M329.048 188.194C329.938 189.111 330.204 189.624 331.315 190.073C332.422 191.968 333.493 193.753 334.469 195.726C334.781 195.359 336.199 194.55 336.701 194.241C338.25 196.089 337.808 196.112 339.759 196.844C341.775 195.833 342.253 194.36 343.585 192.223L346.985 197.127C346.13 199.716 343.098 202.422 341.147 204.676C341.73 205.498 341.519 205.207 342.519 205.726C345.411 204.841 345.496 201.4 348.79 199.712C350.153 199.523 350.64 199.909 351.888 200.497C350.389 210.489 344.888 227.217 337.29 234.494L336.364 233.797C336.088 233.051 335.831 232.668 335.449 231.971C332.221 229.68 325.699 229.577 322.506 231.899C320.851 230.239 314.189 228.21 310.628 226.313C307.149 228.369 302.02 231.79 297.796 230.75C294.975 230.056 294.105 228.842 291.203 229.066L291.746 228.211C292.149 226.248 292.279 227.138 291.475 225.429L288.754 222.408L289.071 221.026C290.217 220.236 290.494 220.219 291.007 218.926C291.912 216.77 292.596 214.536 294.21 212.942L295.376 212.715C299.53 215.996 298.182 218.44 303.161 218.928C304.257 219.423 304.403 219.417 305.564 219.742C306.293 219.42 308.481 216.124 309.763 214.945C311.035 212.586 312.926 210.445 314.616 208.339C314.294 205.42 313.897 204.621 311.971 202.442C312.323 200.378 312.624 200.041 313.65 198.155C315.757 197.183 316.325 197.076 317.869 195.443L317.633 194.023C318.799 191.535 320.097 190.884 322.214 188.976C325.216 190.019 326.488 190.448 329.048 188.194Z" fill="#F5F5F3"/>
<path d="M329.048 188.194C329.938 189.111 330.204 189.624 331.315 190.073C332.422 191.968 333.493 193.753 334.469 195.726C334.781 195.359 336.199 194.55 336.701 194.241C338.25 196.089 337.808 196.112 339.759 196.844C341.775 195.833 342.253 194.36 343.585 192.223L346.985 197.127C346.13 199.716 343.098 202.422 341.147 204.676C340.231 212.579 336.379 219.787 328.017 221.005C326.232 221.542 327.086 221.577 325.377 220.956L324.975 220.091C323.491 218.448 324.069 218.559 322.425 218.465C320.786 220.098 320.554 220.349 318.412 221.172C316.25 221.042 314.606 219.171 313.157 217.604C312.66 216.384 310.99 215.665 309.763 214.945C311.035 212.586 312.926 210.445 314.616 208.339C314.294 205.42 313.897 204.621 311.971 202.442C312.323 200.378 312.624 200.041 313.65 198.155C315.757 197.183 316.325 197.076 317.869 195.443L317.633 194.023C318.799 191.535 320.097 190.884 322.214 188.976C325.216 190.019 326.488 190.448 329.048 188.194Z" fill="#F5F5F3"/>
<path d="M343.585 192.223L346.985 197.127C346.13 199.716 343.098 202.422 341.147 204.676C340.231 212.579 336.379 219.787 328.017 221.005C324.738 211.726 328.107 208.955 331.934 200.071L334.469 195.726C334.781 195.359 336.199 194.55 336.701 194.241C338.25 196.089 337.808 196.112 339.759 196.844C341.775 195.833 342.253 194.36 343.585 192.223Z" fill="#F5F5F3"/>
<path d="M336.439 200.368C337.209 199.739 338.335 199.849 338.969 200.614C339.597 201.38 339.502 202.515 338.748 203.159C337.983 203.812 336.837 203.711 336.193 202.936C335.554 202.16 335.665 201.006 336.439 200.368Z" fill="#F5F5F3"/>
<path d="M329.048 188.194C329.938 189.111 330.204 189.624 331.315 190.073C332.422 191.968 333.493 193.753 334.469 195.726L331.934 200.071C328.148 199.487 326.031 197.35 322.501 195.524C316.567 198.572 316.929 202.463 311.971 202.442C312.323 200.378 312.624 200.041 313.65 198.155C315.757 197.183 316.325 197.076 317.869 195.443L317.633 194.023C318.799 191.535 320.097 190.884 322.214 188.976C325.216 190.019 326.488 190.448 329.048 188.194Z" fill="#F5F5F3"/>
<path d="M291.007 218.926C291.912 216.77 292.596 214.536 294.21 212.942L295.376 212.715C299.53 215.996 298.182 218.44 303.161 218.928C304.257 219.423 304.403 219.417 305.564 219.742C306.293 219.42 308.481 216.124 309.763 214.945C310.99 215.665 312.66 216.384 313.157 217.604C305.504 223.504 305.263 218.299 300.516 219.887C298.439 222.243 298.389 223.805 295.407 227.071L294.12 227.12L291.746 228.211C292.149 226.248 292.279 227.138 291.475 225.429L288.754 222.408L289.071 221.026C290.217 220.236 290.494 220.219 291.007 218.926Z" fill="#F5F5F3"/>
<path d="M280.266 155.412C283.651 155.583 286.854 155.836 290.168 155.593C292.124 155.45 298.792 151.974 299.757 152.42C302.05 153.476 303.393 157.432 306.148 150.525C308.326 149.907 309.593 152.377 310.981 153.956C317.392 155.37 324.135 156.969 330.607 157.964C336.269 158.834 342.479 158.195 348.091 159.721C350.173 160.288 350.887 160.36 351.958 162.285C353.085 164.301 353.225 167.159 353.447 169.453L352.008 170.122C351.993 172.739 351.913 175.469 352.099 178.069C352.36 182.77 350.822 194.369 348.453 198.198L347.649 198.24L346.985 197.127L343.585 192.223C342.253 194.36 341.775 195.833 339.759 196.844C337.808 196.112 338.25 196.089 336.701 194.241C336.199 194.55 334.781 195.359 334.469 195.726C333.493 193.753 332.422 191.968 331.315 190.073L333.09 188.457C332.658 187.919 331.728 185.899 331.361 185.159L333.438 184.017C331.346 180.645 329.576 182.813 326.845 179.484L327.112 177.662L326.232 176.811L326.267 175.427C324.024 173.582 323.627 169.199 316.733 163.942C313.343 166.296 312.222 166.588 308.375 167.543C302.889 166.95 299.948 162.232 295.06 164.991C293.853 165.6 293.828 165.696 292.546 166.056L290.952 164.734C288.79 162.434 288.005 161.228 284.898 162.533C284.712 164.126 284.631 166.175 283.922 167.547C281.222 166.141 279.266 165.308 278.31 162.266L278.954 157.417C279.12 157.038 279.985 155.828 280.266 155.412Z" fill="#F5F5F3"/>
<path d="M329.651 170.762C339.753 162.556 333.211 168.281 333.805 161.526L334.956 161.162C337.626 162.023 342.509 169.682 344.641 172.573C347.437 171.469 349.112 170.912 352.008 170.122C351.993 172.739 351.913 175.469 352.099 178.069C352.36 182.77 350.822 194.369 348.453 198.198L347.649 198.24L346.985 197.127L343.585 192.223C342.253 194.36 341.775 195.833 339.759 196.844C337.808 196.112 338.25 196.089 336.701 194.241C336.199 194.55 334.781 195.359 334.469 195.726C333.493 193.753 332.422 191.968 331.315 190.073L333.09 188.457C332.658 187.919 331.728 185.899 331.361 185.159L333.438 184.017C331.346 180.645 329.576 182.813 326.845 179.484L327.112 177.662L326.232 176.811L326.267 175.427C327.514 173.311 328.047 172.632 329.651 170.762Z" fill="#F5F5F3"/>
<path d="M333.09 188.457C334.041 190.062 335.595 192.882 336.701 194.241C336.199 194.55 334.781 195.359 334.469 195.726C333.493 193.753 332.422 191.968 331.315 190.073L333.09 188.457Z" fill="#F5F5F3"/>
<path d="M119.664 149.373C129.036 145.593 153.816 150.04 164.701 151.266C166.377 151.455 168.275 157.024 168.844 158.564C166.747 159.022 165.492 158.071 163.58 156.835C163.157 156.565 162.737 156.29 162.32 156.011C159.876 157.54 157.385 158.994 154.853 160.372C153.959 160.369 153.847 160.261 152.962 160.036C148.667 162.525 146.733 164.743 143.306 168.324C141.424 167.218 139.527 166.228 137.898 164.787C135.823 165.905 132.387 167.994 130.177 168.283L127.029 168.247L125.451 166.422C123.423 167.18 122.39 167.427 120.661 168.802C119.531 169.117 117.169 167.829 116.092 167.319C111.81 170.4 106.508 177.063 104.247 177.821C100.048 171.745 104.176 161.687 96.1085 161.469C95.1978 162.566 93.9829 163.865 93.4504 165.135C92.0299 164.569 91.1569 164.553 89.6383 164.321L88.8986 164.083L86.7509 164.193C86.8932 162.521 87.0612 163.266 86.3577 161.855C84.3251 160.677 81.8335 160.445 79.4691 160.017C82.5813 159.565 82.2795 158.753 84.8325 156.068L85.2529 154.116C86.7977 152.373 87.6123 152.48 89.8319 152.404L90.1713 149.985C100.103 149.161 110.361 146.836 119.664 149.373Z" fill="#F5F5F3"/>
<path d="M131.005 158.04L133.096 158.042C134.241 156.967 133.804 157.657 133.918 155.592C135.15 156.645 134.447 156.282 136.177 156.552L137.134 157.274L136.963 157.846C136.361 159.911 136.232 160.128 136.303 162.206C136.872 163.192 137.234 163.849 137.898 164.787C135.823 165.905 132.387 167.994 130.177 168.283L127.029 168.247L125.451 166.422C123.423 167.18 122.39 167.427 120.661 168.802C119.531 169.117 117.169 167.829 116.092 167.319C117.345 166.269 116.832 166.916 117.399 165.119C117.666 162.215 118.1 158.658 120.604 156.955C122.391 156.399 123.432 157.014 125.289 157.651C127.891 157.535 128.456 157.544 131.005 158.04Z" fill="#F5F5F3"/>
<path d="M126.262 162.643C128.172 163.747 127.458 162.997 128.461 164.997C127.575 165.399 126.249 165.943 125.451 166.422C123.423 167.18 122.39 167.427 120.661 168.802C119.531 169.117 117.169 167.829 116.092 167.319C117.345 166.269 116.832 166.916 117.399 165.119C121.657 165.35 123.004 165.458 126.262 162.643Z" fill="#F5F5F3"/>
<path d="M125.289 157.651C127.891 157.535 128.456 157.544 131.005 158.04C125.791 158.122 125.884 157.146 124.025 161.905C122.658 162.932 122.693 163.054 120.939 163.186L120.414 162.479C121.214 159.511 122.825 159.019 125.289 157.651Z" fill="#F5F5F3"/>
<path d="M126.262 162.643C128.387 162.039 129.112 161.569 131.02 162.351L131.87 163.206C131.331 164.542 129.837 164.781 128.461 164.997C127.458 162.997 128.172 163.747 126.262 162.643Z" fill="#F5F5F3"/>
<path d="M139.926 151.28L141.246 150.701C143.917 151.339 144.502 151.312 145.98 153.695C147.073 156.613 150.454 158.295 152.962 160.036C148.667 162.525 146.733 164.743 143.306 168.324C141.424 167.218 139.527 166.228 137.898 164.787C137.234 163.849 136.872 163.192 136.303 162.206C136.232 160.128 136.361 159.911 136.963 157.846L137.134 157.274L136.177 156.552C137.809 154.266 138.903 154.454 139.926 151.28Z" fill="#F5F5F3"/>
<path d="M141.246 150.701C143.917 151.339 144.502 151.312 145.98 153.695C144.963 155.341 144.551 155.916 142.68 156.213L141.793 155.412C141.01 153.354 141.149 152.977 141.246 150.701Z" fill="#F5F5F3"/>
<path d="M84.8325 156.068L87.2115 157.722L86.853 158.932C87.8109 159.891 87.6621 159.592 89.2843 159.834C88.4858 161.744 88.0478 161.925 88.8986 164.083L86.7509 164.193C86.8932 162.521 87.0612 163.266 86.3577 161.855C84.3251 160.677 81.8335 160.445 79.4691 160.017C82.5813 159.565 82.2795 158.753 84.8325 156.068Z" fill="#F5F5F3"/>
<path d="M89.2843 159.834C90.9502 159.714 91.3691 159.572 92.938 160.225C93.9442 161.48 93.9975 161.096 96.1085 161.469C95.1978 162.566 93.9829 163.865 93.4504 165.135C92.0299 164.569 91.1569 164.553 89.6383 164.321L88.8986 164.083C88.0478 161.925 88.4858 161.744 89.2843 159.834Z" fill="#F5F5F3"/>
<path d="M133.918 155.592C134.447 153.572 134.416 153.296 135.71 151.754C137.449 150.829 137.856 151.046 139.926 151.28C138.903 154.454 137.809 154.266 136.177 156.552C134.447 156.282 135.15 156.645 133.918 155.592Z" fill="#F5F5F3"/>
<path d="M85.2529 154.116C86.7977 152.373 87.6123 152.48 89.8319 152.404C89.4995 155.716 89.759 155.765 87.2115 157.722L84.8325 156.068L85.2529 154.116Z" fill="#F5F5F3"/>
<path d="M167.452 179.708C167.542 182.001 167.187 186.159 167.606 187.608C168.865 188.637 168.136 188.299 169.97 188.386C170.234 189.881 170.453 191.02 170.831 192.489L171.857 193.089C169.208 198.271 166.218 196.207 163.99 199.068L164.353 199.802C166.438 200.359 167.225 200.489 169.375 200.69L169.608 201.331L168.78 202.214L167.844 201.496L164.677 203.197L163.743 202.91L163.578 201.605L162.833 199.091L162.196 198.792C158.68 204.94 154.312 214.291 150.129 219.231C149.171 220.341 146.331 223.823 145.331 224.46C143.894 226.841 143.594 227.118 141.464 228.918C139.592 230.409 133.065 236.095 131.392 236.68C121.604 241.675 114.594 243.249 103.825 244.895C103.165 244.996 103.52 244.925 102.721 245.148C101.988 243.126 102.409 243.847 100.729 242.394C100.103 241.608 100.388 241.286 100.467 239.934C101.562 238.674 103.861 235.199 104.921 233.678L103.687 232.298C105.245 231.405 106.197 229.686 108.471 228.221C109.749 226.881 110.195 226.29 111.242 224.755C113.09 222.623 117.619 218.786 119.957 216.587C121.607 216.074 121.94 215.718 123.3 214.712C126.396 211.358 126.649 214.484 129.118 212.213C130.387 214.403 130.967 215.185 131.438 217.745L132.126 218.452C133.211 219.449 133.571 219.148 135.394 219.35C139.16 212.847 144.131 213.492 148.66 204.173C146.708 202.188 145.688 200.894 143.989 198.71C151.529 194.415 151.04 192.594 156.835 186.671C159.802 183.638 163.714 181.579 167.452 179.708Z" fill="#F5F5F3"/>
<path d="M129.118 212.213C130.387 214.403 130.967 215.185 131.438 217.745L132.126 218.452C131.29 220.431 131.407 220.511 129.228 221.711L130.755 223.652C127.011 227.942 124.565 231.987 118.427 229.079C115.985 228.012 113.097 226.67 111.242 224.755C113.09 222.623 117.619 218.786 119.957 216.587C121.607 216.074 121.94 215.718 123.3 214.712C126.396 211.358 126.649 214.484 129.118 212.213Z" fill="#F5F5F3"/>
<path d="M163.06 196.021C165.483 194.138 166.588 189.596 169.97 188.386C170.234 189.881 170.453 191.02 170.831 192.489L171.857 193.089C169.208 198.271 166.218 196.207 163.99 199.068L164.353 199.802C166.438 200.359 167.225 200.489 169.375 200.69L169.608 201.331L168.78 202.214L167.844 201.496L164.677 203.197L163.743 202.91L163.578 201.605C163.567 200.016 163.238 197.66 163.06 196.021Z" fill="#F5F5F3"/>
<path d="M163.06 196.021C163.238 197.66 163.567 200.016 163.578 201.605L162.833 199.091L162.196 198.792C158.68 204.94 154.312 214.291 150.129 219.231C149.737 218.046 149.479 217.424 150.222 216.084C152.193 212.523 160.09 197.4 163.06 196.021Z" fill="#F5F5F3"/>
<path d="M100.729 242.394C101.948 242.5 112.471 242.358 113.794 242.178C117.407 241.688 127.478 235.671 131.392 236.68C121.604 241.675 114.594 243.249 103.825 244.895C103.165 244.996 103.52 244.925 102.721 245.148C101.988 243.126 102.409 243.847 100.729 242.394Z" fill="#F5F5F3"/>
<path d="M141.464 228.918C141.146 228.705 140.673 228.201 140.376 227.912C140.551 225.075 142.844 224.27 145.331 224.46C143.894 226.841 143.594 227.118 141.464 228.918Z" fill="#F5F5F3"/>
<path d="M260.006 158.794C263.657 156.417 275.419 155.521 278.954 157.417L278.31 162.266C279.266 165.308 281.222 166.141 283.922 167.547C284.631 166.175 284.712 164.126 284.898 162.533C288.005 161.228 288.79 162.434 290.952 164.734L292.546 166.056C293.828 165.696 293.853 165.6 295.06 164.991C299.948 162.232 302.889 166.95 308.375 167.543L307.123 169.337C306.002 172.248 303.09 176.029 301.069 178.525L300.993 181.291C294.522 178.026 297.277 185.171 291.711 176.03C289.096 176.927 287.457 176.958 285.993 178.831C287.688 180.833 293.526 177.938 293.073 183.704C291.972 185.075 290.278 186.367 290.257 187.513C289.393 188.753 288.774 189.779 287.643 190.793L285.546 192.026C284.062 191.826 281.986 192.455 280.457 192.801L279.11 190.841L279.14 190.426L278.3 189.768L275.992 190.826C273.427 190.248 273.397 186.984 270.556 187.521C268.218 189.075 269.395 190.366 267.001 191.622L266.498 191.299C266.488 189.035 263.682 187.592 261.258 184.687C261.163 181.949 261.837 180.774 261.535 177.782L260.197 176.787C262.078 173.381 263.908 169.949 265.694 166.491C264.125 163.957 261.816 161.368 260.006 158.794Z" fill="#F5F5F3"/>
<path d="M260.006 158.794C263.657 156.417 275.419 155.521 278.954 157.417L278.31 162.266L277.908 163.399L278.29 164.115C278.743 164.963 278.969 165.511 279.321 166.42L278.868 167.76L276.932 167.036C275.65 166.559 276.143 166.599 274.855 166.773C274.634 167.712 274.634 167.222 275.167 168.249C275.831 171.531 275.826 172.703 275.695 176.038C275.776 177.47 275.826 177.998 275.65 179.464L276.289 181.006C276.978 183.437 277.169 184.58 278.697 186.657L278.3 189.768L275.992 190.826C273.427 190.248 273.397 186.984 270.556 187.521C268.218 189.075 269.395 190.366 267.001 191.622L266.498 191.299C266.488 189.035 263.682 187.592 261.258 184.687C261.163 181.949 261.837 180.774 261.535 177.782L260.197 176.787C262.078 173.381 263.908 169.949 265.694 166.491C264.125 163.957 261.816 161.368 260.006 158.794Z" fill="#F5F5F3"/>
<path d="M278.868 167.76L279.321 166.42C278.969 165.511 278.743 164.963 278.29 164.115L277.908 163.399L278.31 162.266C279.266 165.308 281.222 166.141 283.922 167.547C284.425 169.274 284.384 168.369 283.615 170.346C282.091 171.53 282.941 171.202 280.95 171.278C279.477 170.287 279.331 169.969 278.868 167.76Z" fill="#F5F5F3"/>
<path d="M260.197 176.787L261.535 177.782C261.837 180.774 261.163 181.949 261.258 184.687C263.682 187.592 266.488 189.035 266.498 191.299L267.001 191.622C269.395 190.366 268.218 189.075 270.556 187.521C273.397 186.984 273.427 190.248 275.992 190.826L278.3 189.768L279.14 190.426L279.11 190.841L280.457 192.801L280.034 193.915C277.983 195.516 275.956 197.035 274.83 199.497C274.976 200.833 275.132 203.256 275.624 204.385C274.915 206.498 274.297 208.365 273.432 210.433C275.514 212.409 277.802 214.693 280.019 216.443C283.253 220.957 285.445 219.985 288.754 222.408L291.475 225.429C292.279 227.138 292.149 226.248 291.746 228.211L291.203 229.066C286.205 233.125 284.988 233.054 284.249 239.53L283.741 241.464C273.996 237.847 265.865 229.006 261.158 219.85C258.94 216.873 256.129 210.497 254.465 206.931L256.351 206.367L256.602 205.588C257.417 203.093 257.03 203.3 259.046 201.536L261.601 197.872C260.469 190.588 260.047 188.275 257.15 181.542C258.116 179.748 259.046 178.449 260.197 176.787Z" fill="#F5F5F3"/>
<path d="M254.465 206.931L256.351 206.367L256.602 205.588C257.417 203.093 257.03 203.3 259.046 201.536C260.751 203.959 270.129 205.69 269.802 211.556C268.952 213.332 268.404 213.64 266.539 214.57L267.665 217.541C266.046 218.074 265.457 218.359 264.049 219.314C262.848 219.208 262.873 219.155 261.756 218.646L261.158 219.85C258.94 216.873 256.129 210.497 254.465 206.931Z" fill="#F5F5F3"/>
<path d="M261.756 218.646C261.711 216.721 261.419 216.966 262.254 215.582C263.843 214.967 264.849 214.861 266.539 214.57L267.665 217.541C266.046 218.074 265.457 218.359 264.049 219.314C262.848 219.208 262.873 219.155 261.756 218.646Z" fill="#F5F5F3"/>
<path d="M267.665 217.541L269.314 217.266L269.63 218.373C254.831 221.017 280.644 238.792 284.249 239.53L283.741 241.464C273.996 237.847 265.865 229.006 261.158 219.85L261.756 218.646C262.873 219.155 262.848 219.208 264.049 219.314C265.457 218.359 266.046 218.074 267.665 217.541Z" fill="#F5F5F3"/>
<path d="M269.314 217.266C270.44 215.516 269.701 216.138 271.617 215.34C273.603 215.693 272.743 215.292 274.292 216.586L274.212 217.638C272.266 218.749 272.049 218.377 269.63 218.373L269.314 217.266Z" fill="#F5F5F3"/>
<path d="M105.296 198.718C106.895 198.885 108.072 198.869 109.505 199.597C108.943 202.553 108.109 199.803 108.8 203.314C110.396 205.613 113.464 207.094 115.991 208.285C116.892 206.353 117.543 204.316 119.198 203.145C121.002 202.933 120.409 202.975 122.283 203.813C123.776 203.799 125.436 203.701 126.889 203.91C127.39 207.291 127.606 209.048 129.118 212.213C126.649 214.484 126.396 211.358 123.3 214.712C121.94 215.718 121.607 216.074 119.957 216.587C117.619 218.786 113.09 222.623 111.242 224.755C110.195 226.29 109.749 226.881 108.471 228.221C106.197 229.686 105.245 231.405 103.687 232.298L104.921 233.678C103.861 235.199 101.562 238.674 100.467 239.934C99.4455 239.739 98.7082 239.468 97.7196 239.145L94.0282 237.628C89.9536 235.473 92.3914 233.561 85.2639 233.82L84.7716 231.391C85.1055 229.437 86.3747 228.472 87.7772 226.966C89.1218 225.231 91.2952 220.909 91.0769 218.731C88.8835 216.142 89.336 216.965 89.8922 213.681C89.9143 213.625 89.937 213.568 89.9596 213.512C93.5882 208.051 91.7218 204.157 96.8851 199.882L99.6634 200.926C101.318 201.546 101.552 201.57 103.217 200.808C103.994 200.134 104.589 199.463 105.296 198.718Z" fill="#F5F5F3"/>
<path d="M87.7772 226.966C94.7372 230.853 96.4143 227.921 103.687 232.298L104.921 233.678C103.861 235.199 101.562 238.674 100.467 239.934C99.4455 239.739 98.7082 239.468 97.7196 239.145L94.0282 237.628C89.9536 235.473 92.3914 233.561 85.2639 233.82L84.7716 231.391C85.1055 229.437 86.3747 228.472 87.7772 226.966Z" fill="#F5F5F3"/>
<path d="M248.355 189.027C247.204 185.704 245.504 181.434 244.765 178.071C243.156 170.727 246.444 148.305 258.352 156.255C259.383 157.32 259.569 157.35 260.006 158.794C261.816 161.368 264.125 163.957 265.694 166.491C263.908 169.949 262.078 173.381 260.197 176.787C259.046 178.449 258.116 179.748 257.15 181.542C260.047 188.275 260.469 190.588 261.601 197.872L259.046 201.536C257.03 203.3 257.417 203.093 256.602 205.588L256.351 206.367L254.465 206.931C252.489 202.801 251.629 200.855 250.281 196.513C249.346 193.657 248.964 191.973 248.355 189.027Z" fill="#F5F5F3"/>
<path d="M96.1085 161.469C104.176 161.687 100.048 171.745 104.247 177.821L104.285 178.654C102.722 179.92 102.537 180.126 102.044 182.081C102.236 183.897 102.757 184.52 103.67 186.161C101.294 189.912 97.0636 194.907 95.2167 198.144C95.0849 197.595 94.8294 196.916 94.6453 196.367C90.538 195.623 89.1064 195.131 85.4416 192.979C73.539 185.987 81.4811 182.805 84.6396 176.633L85.7056 176.713C90.2102 173.077 92.0364 170.695 93.4504 165.135C93.9829 163.865 95.1978 162.566 96.1085 161.469Z" fill="#F5F5F3"/>
<path d="M291.203 229.066C294.105 228.842 294.975 230.056 297.796 230.75C302.02 231.79 307.149 228.369 310.628 226.313C314.189 228.21 320.851 230.239 322.506 231.899L321.972 232.18C315.531 235.671 314.183 240.787 307.385 234.925C303.85 237.381 301.828 238.659 300.355 242.974C299.802 245.002 300.264 244.46 298.806 245.484C294.119 244.604 288.282 242.876 283.741 241.464L284.249 239.53C284.988 233.054 286.205 233.125 291.203 229.066Z" fill="#F5F5F3"/>
<path d="M322.506 231.899C325.699 229.577 332.221 229.68 335.449 231.971C335.831 232.668 336.088 233.051 336.364 233.797C331.266 237.755 325.302 240.944 318.951 242.238C312.59 243.534 306.751 241.717 300.355 242.974C301.828 238.659 303.85 237.381 307.385 234.925C314.183 240.787 315.531 235.671 321.972 232.18L322.506 231.899Z" fill="#F5F5F3"/>
<path d="M85.2639 233.82C92.3914 233.561 89.9536 235.473 94.0282 237.628L97.7196 239.145C98.7082 239.468 99.4455 239.739 100.467 239.934C100.388 241.286 100.103 241.608 100.729 242.394C102.409 243.847 101.988 243.126 102.721 245.148C95.57 245.2 88.2369 244.847 81.3725 242.672C82.0554 237.564 85.282 239.099 85.2639 233.82Z" fill="#F5F5F3"/>
<path d="M81.3725 242.672C80.414 242.177 80.8351 242.39 80.1723 241.097C80.7928 238.313 83.204 238.078 84.0583 235.251C85.8912 229.185 83.4534 228.124 81.44 224.328C82.8968 224.843 82.7072 225.027 84.0583 224.792C84.7392 223.042 83.7582 219.031 83.6138 216.586C85.5659 214.542 87.5992 215.805 89.8922 213.681C89.336 216.965 88.8835 216.142 91.0769 218.731C91.2952 220.909 89.1218 225.231 87.7772 226.966C86.3747 228.472 85.1055 229.437 84.7716 231.391L85.2639 233.82C85.282 239.099 82.0554 237.564 81.3725 242.672Z" fill="#F5F5F3"/>
<path d="M336.364 233.797L337.29 234.494C332.271 239.926 323.537 243.083 316.748 245.972C309.638 244.623 305.881 245.762 298.806 245.484C300.264 244.46 299.802 245.002 300.355 242.974C306.751 241.717 312.59 243.534 318.951 242.238C325.302 240.944 331.266 237.755 336.364 233.797Z" fill="#F5F5F3"/>
<path d="M72.3506 153.117C76.1778 152.187 80.6703 151.439 84.582 150.691L85.2529 154.116L84.8325 156.068C82.2795 158.753 82.5813 159.565 79.4691 160.017C76.1055 158.516 75.0298 157.799 72.7861 154.893L72.3506 153.117Z" fill="#F5F5F3"/>
<path d="M248.355 189.027C248.964 191.973 249.346 193.657 250.281 196.513L249.818 197.011C249.074 197.825 248.782 198.376 248.209 199.322C246.866 199.911 246.358 199.651 245.036 198.749L243.175 199.227C242.969 197.957 242.532 196.371 242.215 195.088L243.995 194.033C245.026 187.94 245.197 192.046 248.355 189.027Z" fill="#F5F5F3"/>
<path d="M62.3095 157.247L62.9064 158.412C59.4745 161.808 61.7971 163.126 60.1196 167.677C59.4403 169.519 57.8211 171.585 56.6338 173.199L56.2104 173.063L55.612 171.862C56.0294 167.262 56.5182 164.813 58.0343 160.52C59.3447 159.38 60.903 158.291 62.3095 157.247Z" fill="#F5F5F3"/>
<path d="M258.352 156.255C265.633 154.734 272.92 153.771 280.266 155.412C279.985 155.828 279.12 157.038 278.954 157.417C275.419 155.521 263.657 156.417 260.006 158.794C259.569 157.35 259.383 157.32 258.352 156.255Z" fill="#F5F5F3"/>
<path d="M352.008 170.122L353.447 169.453C353.145 172.131 354.723 178.298 355.341 181.235C355.085 182.308 354.849 183.474 354.497 184.507L353.245 184C352.365 182.805 352.371 179.744 352.099 178.069C351.913 175.469 351.993 172.739 352.008 170.122Z" fill="#F5F5F3"/>
<path d="M56.6338 173.199C56.1964 177.84 56.1259 182.484 55.3751 187.083C54.559 184.873 54.8452 174.231 55.612 171.862L56.2104 173.063L56.6338 173.199Z" fill="#F5F5F3"/>
<path d="M62.3095 157.247C64.6302 154.883 69.084 153.386 72.3506 153.117L72.7861 154.893C67.9406 153.796 65.997 157.21 62.9064 158.412L62.3095 157.247Z" fill="#F5F5F3"/>
<path d="M84.582 150.691C86.69 150.279 88.0613 150.164 90.1713 149.985L89.8319 152.404C87.6123 152.48 86.7977 152.373 85.2529 154.116L84.582 150.691Z" fill="#F5F5F3"/>
<path d="M355.341 181.235C356.996 183.142 358.963 182.777 361.306 184.465L361.24 184.829C358.852 184.893 356.006 184.044 354.175 184.989L354.497 184.507C354.849 183.474 355.085 182.308 355.341 181.235Z" fill="#F5F5F3"/>
<path d="M56.2927 204.224C56.2786 202.648 56.0503 201.279 56.8388 199.994L57.6886 200.143C59.8358 205.578 60.5816 210.677 62.239 216.095L63.0827 218.653L62.8092 220.591L60.8732 220.764C57.9215 216.434 57.046 209.347 56.2927 204.224Z" fill="#F5F5F3"/>
<path d="M60.1809 177.373C64.154 178.292 68.1361 179.268 68.8521 183.747C64.4788 183.718 61.9359 181.344 60.1809 177.373Z" fill="#F5F5F3"/>
<path d="M82.9156 195.942C83.7604 195.832 83.5723 195.903 84.4618 196.133C84.9657 197.144 84.2024 202.802 84.0711 204.539C81.9808 202.77 80.5331 201.448 80.4778 198.586C81.3185 196.62 80.9208 197.287 82.9156 195.942Z" fill="#F5F5F3"/>
<path d="M60.8732 220.764L62.8092 220.591C63.8516 222.671 68.9165 230.801 68.5464 231.971C65.0671 229.273 62.6629 224.764 60.8732 220.764Z" fill="#F5F5F3"/>
<path d="M62.239 216.095C64.8719 215.444 69.103 211.878 70.8006 212.567C67.8081 218.007 67.3067 216.406 63.0827 218.653L62.239 216.095Z" fill="#F5F5F3"/>
<path d="M72.024 185.2C73.8911 185.508 74.5694 186.218 75.0602 187.953C74.2415 190.059 74.5976 189.355 72.5897 190.892C70.5943 190.786 70.261 190.947 69.5751 189.211C70.1383 187.225 70.6607 186.839 72.024 185.2Z" fill="#F5F5F3"/>
<path d="M56.2927 204.224C55.7738 202.091 54.7581 194.313 56.2254 192.654C54.8234 194.75 56.6694 193.128 56.9133 194.622C57.1667 196.173 57.4855 198.637 57.6886 200.143L56.8388 199.994C56.0503 201.279 56.2786 202.648 56.2927 204.224Z" fill="#F5F5F3"/>
<path d="M70.5641 233.483C73.8784 234.413 75.217 235.797 76.0512 239.203C73.0622 238.261 70.6626 236.906 70.5641 233.483Z" fill="#F5F5F3"/>
</svg>
