<svg width="2008" height="927" viewBox="0 0 2008 927" fill="none" xmlns="http://www.w3.org/2000/svg">
<g filter="url(#filter0_d_54_94)">
<g clip-path="url(#clip0_54_94)">
<path fill-rule="evenodd" clip-rule="evenodd" d="M198.986 339.751C306.674 339.751 393.972 427.029 393.972 534.691C393.972 642.353 306.674 729.63 198.986 729.63C166.867 729.63 136.565 721.861 109.85 708.108V813.176H2004V919H4V540.261H4.08705C4.03512 538.41 4 536.554 4 534.691C4 427.029 91.2982 339.751 198.986 339.751ZM198.986 451.227C152.879 451.227 115.502 488.595 115.502 534.691C115.502 580.787 152.879 618.155 198.986 618.155C245.093 618.155 282.47 580.787 282.47 534.691C282.47 488.595 245.093 451.227 198.986 451.227Z" fill="#15161A"/>
<path d="M566.674 729.63H460.825V0H566.674V729.63Z" fill="#15161A"/>
<path d="M739.376 540.478C740.009 550.227 742.231 559.821 745.981 568.871C750.47 579.706 757.049 589.552 765.343 597.845C773.638 606.138 783.487 612.715 794.325 617.203C805.163 621.691 816.781 624.002 828.513 624.002V729.63C802.907 729.63 777.553 724.588 753.897 714.792C730.24 704.996 708.741 690.637 690.635 672.535C672.529 654.434 658.167 632.94 648.368 609.289C639.994 589.075 635.106 567.621 633.858 545.83H633.526V339.751H739.376V540.478Z" fill="#15161A"/>
<path d="M1090.35 339.751C1142.06 339.751 1191.66 360.288 1228.23 396.846C1262.16 430.77 1282.28 475.912 1285.01 523.552H1285.34V729.63H1173.92V534.691H1173.83C1173.83 512.555 1165.04 491.323 1149.39 475.671C1133.73 460.018 1112.49 451.227 1090.35 451.227C1068.21 451.227 1046.97 460.018 1031.32 475.671C1015.66 491.323 1006.87 512.555 1006.87 534.691H1006.79V729.63H895.365V523.552H895.697C898.422 475.912 918.542 430.77 952.473 396.846C989.04 360.288 1038.64 339.751 1090.35 339.751Z" fill="#15161A"/>
<path d="M1458.04 144.812H1547.18V250.636H1458.04V540.478C1458.67 550.227 1460.89 559.821 1464.64 568.871C1469.13 579.706 1475.71 589.552 1484.01 597.845C1492.3 606.138 1502.15 612.715 1512.99 617.203C1523.83 621.691 1535.44 624.002 1547.18 624.002V729.63C1521.57 729.63 1496.22 724.588 1472.56 714.792C1448.9 704.996 1427.4 690.637 1409.3 672.535C1391.19 654.434 1376.83 632.94 1367.03 609.289C1358.66 589.075 1353.77 567.621 1352.52 545.83H1352.19V0H1458.04V144.812Z" fill="#15161A"/>
<path fill-rule="evenodd" clip-rule="evenodd" d="M1809.01 339.751C1916.7 339.751 2004 427.029 2004 534.691C2004 642.353 1916.7 729.63 1809.01 729.63C1701.33 729.63 1614.03 642.353 1614.03 534.691C1614.03 427.029 1701.33 339.751 1809.01 339.751ZM1809.01 451.216C1762.9 451.216 1725.52 488.59 1725.52 534.691C1725.52 580.792 1762.9 618.166 1809.01 618.166C1855.13 618.166 1892.51 580.792 1892.51 534.691C1892.51 488.59 1855.13 451.216 1809.01 451.216Z" fill="#15161A"/>
<path d="M686.451 144.812C715.681 144.812 739.376 168.502 739.376 197.724C739.376 226.947 715.681 250.636 686.451 250.636C657.222 250.636 633.526 226.947 633.526 197.724C633.526 168.502 657.222 144.812 686.451 144.812Z" fill="#15161A"/>
</g>
</g>
<defs>
<filter id="filter0_d_54_94" x="0" y="0" width="2008" height="927" filterUnits="userSpaceOnUse" color-interpolation-filters="sRGB">
<feFlood flood-opacity="0" result="BackgroundImageFix"/>
<feColorMatrix in="SourceAlpha" type="matrix" values="0 0 0 0 0 0 0 0 0 0 0 0 0 0 0 0 0 0 127 0" result="hardAlpha"/>
<feOffset dy="4"/>
<feGaussianBlur stdDeviation="2"/>
<feComposite in2="hardAlpha" operator="out"/>
<feColorMatrix type="matrix" values="0 0 0 0 0 0 0 0 0 0 0 0 0 0 0 0 0 0 0.25 0"/>
<feBlend mode="normal" in2="BackgroundImageFix" result="effect1_dropShadow_54_94"/>
<feBlend mode="normal" in="SourceGraphic" in2="effect1_dropShadow_54_94" result="shape"/>
</filter>
<clipPath id="clip0_54_94">
<rect width="2000" height="919" fill="white" transform="translate(4)"/>
</clipPath>
</defs>
</svg>
