<svg width="1000" height="1000" viewBox="0 0 1000 1000" fill="none" xmlns="http://www.w3.org/2000/svg">
<g clip-path="url(#clip0_56_9)">
<path d="M1000 500C1000 776.142 776.142 1000 500 1000C223.858 1000 0 776.142 0 500C0 223.858 223.858 0 500 0C776.142 0 1000 223.858 1000 500Z" fill="#15161A"/>
<path d="M164.25 336.25C182.193 341.992 223.457 336.203 244.591 336.545C295.205 337.366 358.548 351.562 408.098 341.787C425.095 348.762 437.808 360.945 455.473 366.031C469.827 370.162 484.491 359.452 498.476 359.294L503.765 362.76C517.799 363.949 532.862 361.182 546.695 361.649C553.26 361.871 563.758 366.207 569.994 366.306C583.819 366.527 590.032 360.785 598.712 351.538C605.263 344.555 620.426 346.498 629.782 346.892C635.706 351.188 641.813 356.688 648.977 357.023C659.56 357.73 672.583 351.184 682.826 351.566C707.633 352.49 732.139 353.74 756.984 353.319C765.701 353.273 777.119 356.416 785.536 356.087C819.437 354.765 847.727 360.273 880.454 367.854C885.648 360.717 895.5 350.533 904.465 359.977C908.014 363.722 906.174 371.534 905.548 376.467C942.359 377.766 931.293 400.507 929.754 430.169C907.622 437.103 914.238 444.133 911.994 464.25C909.253 488.728 905.978 515.839 896.896 538.841C894.325 545.333 885.909 554.336 883.377 561.551C880.898 592.091 866.348 593.636 850.846 613.486C852.96 615.58 854.591 617.37 856.574 619.569L856.196 622.079L852.921 623.802C848.432 622.875 849.502 622.745 845.6 618.882C841.398 618.336 802.382 638.392 790.82 638.431C757.389 638.544 713.701 641.925 684.666 622.45C682.84 617.244 687.146 614.92 686.65 611.669C683.205 589.008 665.771 607.075 660.761 606.855C652.005 599.047 627.564 582.728 624.406 575.814C628.399 567.996 626.311 569.29 620.556 560.257C612.831 548.4 603.058 534.654 601.975 520.007C601.244 510.025 601.935 504.079 599.065 494.139C598.53 490.845 597.394 486.733 596.572 483.407C590.183 464.396 584.189 463.283 578.506 449.504C582.37 433.888 581.13 414.095 563.49 403.754C555.974 401.328 543.867 403.103 536.568 402.762C512.462 401.632 490.476 399.893 466.557 404.938C462.089 405.88 449.005 407.165 445.676 409.984C436.664 417.616 434.375 442.386 431.862 453.935C422.028 462.679 419.813 466.367 413.993 478.225C407.12 491.66 399.359 486.309 393.579 493.727L394.522 495.628C399.931 497.073 401.974 497.412 407.553 497.933L408.158 499.593L406.009 501.884C400.017 513.167 391.144 543.726 383.627 548.712C369.473 545.751 364.051 549.156 356.055 562.046C355.923 567.692 357.154 566.415 361.338 572.542C356.679 599.995 316.721 624.181 290.307 625.27C279.625 637.806 275.7 633.821 260.717 636.104C227.373 641.579 195.789 638.325 164.367 628.488C122.987 615.536 103.296 587.023 99.2379 544.881C97.8612 530.593 85.3641 525.682 91.4985 506.501C82.5495 481.491 83.8804 468.607 80.5503 442.798C84.4977 435.232 86.8635 426.413 89.3794 418.202C81.7953 407.336 78.5865 404.481 67.5 397.249C73.2612 383.285 73.8392 370.605 75.4782 355.656L78.7235 355.418C92.9718 354.508 102.612 352.487 116.695 349.841L130.27 360.112C143.31 347.504 147.561 342.984 164.25 336.25Z" fill="#C8C3BA"/>
<path d="M389.247 382.086C390.328 382.809 391.418 383.522 392.514 384.223C397.478 387.426 400.732 389.892 406.175 388.705C410.129 399.119 410.583 424.222 407.322 433.056C405.935 436.003 403.597 440.582 402.562 443.527C392.864 448.379 382.712 453.719 375.011 461.583C359.974 476.941 361.243 481.661 341.676 492.798C346.086 498.461 348.732 501.817 353.798 506.962C342.046 531.126 329.144 529.454 319.373 546.314C314.641 545.792 313.708 546.572 310.892 543.986L309.106 542.154C307.884 535.516 306.38 533.487 303.086 527.811C299.164 519.603 298.603 515.047 297.302 506.282C293.532 505.74 289.223 505.992 285.35 506.029C280.485 503.857 282.025 503.746 277.343 504.298C273.05 507.333 271.359 512.616 269.022 517.625C262.465 514.537 254.503 510.697 250.362 504.735C248.567 495.633 250.732 502.763 252.19 495.099C248.471 493.211 245.417 493.251 241.268 492.819C239.434 494.751 237.889 496.492 235.872 498.238C231.551 500.214 230.945 500.151 226.652 498.543L219.442 495.838L215.112 491.33C219.905 482.938 230.883 469.986 237.048 460.26C234.681 456.006 233.327 454.39 232.83 449.681C234.109 444.613 234.588 444.077 238.644 440.796L238.546 438.635C244.414 436.67 258.171 419.395 269.284 411.405C272.079 412.728 278.207 416.067 281.14 415.251C285.628 411.686 288.308 411.046 293.57 409.08L297.666 413.811L305.834 413.905C311.568 413.155 320.486 407.738 325.87 404.841C330.096 408.576 335.02 411.144 339.903 414.01C348.797 404.726 353.816 398.977 364.961 392.523C367.259 393.105 367.55 393.386 369.869 393.393C376.439 389.82 382.902 386.05 389.247 382.086Z" fill="#453E31"/>
<path d="M293.57 409.08L297.666 413.811L305.834 413.905C303.107 415.103 301.424 415.784 298.847 417.313L302.41 421.516C293.119 424.801 294.187 426.7 291.09 435.923C286.171 439.492 283.668 445.104 281.914 450.746L282.447 453.104C275.336 455.009 272.773 463.964 271.934 470.98L273.466 473.198L277.526 472.655C266.161 488.313 257.888 478.37 241.268 492.819C239.434 494.751 237.889 496.492 235.872 498.238C231.551 500.214 230.945 500.151 226.652 498.543L219.442 495.838L215.112 491.33C219.905 482.938 230.883 469.986 237.048 460.26C234.681 456.006 233.327 454.39 232.83 449.681C234.109 444.613 234.588 444.077 238.644 440.796L238.546 438.635C244.414 436.67 258.171 419.395 269.284 411.405C272.079 412.728 278.207 416.067 281.14 415.251C285.628 411.686 288.308 411.046 293.57 409.08Z" fill="#585243"/>
<path d="M314.055 441.825C319.885 441.381 327.491 444.634 330.409 450.042C330.275 454.706 329.934 453.589 326.24 458.164C316.165 460.378 309.236 452.087 314.055 441.825Z" fill="#2F2B22"/>
<path d="M789.946 402.649C807.837 416.279 808.867 427.646 814.687 432.428L814.596 436.016L816.88 438.223L816.188 442.948C823.274 451.58 827.867 445.959 833.295 454.701L827.906 457.662C828.859 459.582 831.273 464.819 832.395 466.215L827.789 470.402C824.905 469.238 824.213 467.909 821.904 465.531C815.262 471.375 811.96 470.263 804.17 467.558C798.676 472.506 795.309 474.195 792.282 480.644L792.896 484.327C788.89 488.562 787.415 488.839 781.947 491.36C779.285 496.25 778.502 497.123 777.589 502.475C782.587 508.124 783.618 510.195 784.453 517.764C780.068 523.226 775.162 528.776 771.861 534.893C768.533 537.951 762.857 546.495 760.964 547.331C757.95 546.49 757.572 546.503 754.727 545.221C741.809 543.955 745.306 537.618 734.527 529.111L731.5 529.699C727.311 533.833 725.536 539.626 723.187 545.214C721.856 548.567 721.139 548.612 718.164 550.659L717.342 554.245C708.755 547.962 703.066 550.481 694.675 538.778C688.921 534.239 682.983 528.318 677.581 523.193C679.826 517.831 681.431 512.991 683.27 507.513C681.992 504.586 681.587 498.304 681.209 494.839C684.132 488.454 689.391 484.517 694.715 480.366L695.811 477.477C699.778 476.58 705.167 474.949 709.016 475.468L714.458 472.271C717.394 469.643 718.999 466.982 721.243 463.766C721.295 460.794 725.693 457.444 728.551 453.889C729.725 438.94 714.575 446.446 710.178 441.254C713.975 436.398 718.229 436.317 725.014 433.993C739.46 457.695 732.309 439.167 749.103 447.632L749.299 440.462C754.544 433.989 762.1 424.185 765.01 416.639L768.259 411.987C778.241 409.51 781.151 408.753 789.946 402.649Z" fill="#585243"/>
<path d="M789.946 402.649C807.837 416.279 808.867 427.646 814.687 432.428L814.596 436.016L816.88 438.223L816.188 442.948C823.274 451.58 827.867 445.959 833.295 454.701L827.906 457.662C828.859 459.582 831.273 464.819 832.395 466.215L827.789 470.402C824.905 469.238 824.213 467.909 821.904 465.531C815.262 471.375 811.96 470.263 804.17 467.558C798.676 472.506 795.309 474.195 792.282 480.644C791.904 469.446 791.891 471.023 801.913 467.774L801.496 465.568C796.55 459.651 791.383 457.046 783.449 456.693C773.062 460.76 758.746 452.028 749.103 447.632L749.299 440.462C754.544 433.989 762.1 424.185 765.01 416.639L768.259 411.987C778.241 409.51 781.151 408.753 789.946 402.649Z" fill="#7E7C73"/>
<path d="M783.449 456.693C790.417 450.03 794.071 438.701 799.643 437.386C804.458 438.76 805.372 440.23 809.182 443.822C811.257 443.242 813.97 443.148 816.188 442.948C823.274 451.58 827.867 445.959 833.295 454.701L827.906 457.662C828.859 459.582 831.273 464.819 832.395 466.215L827.789 470.402C824.905 469.238 824.213 467.909 821.904 465.531C815.262 471.375 811.96 470.263 804.17 467.558C798.676 472.506 795.309 474.195 792.282 480.644C791.904 469.446 791.891 471.023 801.913 467.774L801.496 465.568C796.55 459.651 791.383 457.046 783.449 456.693Z" fill="#6E6655"/>
<path d="M726.385 511.433C731.67 509.604 733.34 506.949 736.942 502.947L739.578 502.247C749.338 513.257 739.839 515.832 757.533 526.856C742.749 535.907 737.412 524.972 731.135 514.577C731.174 514.63 726.842 511.736 726.385 511.433Z" fill="#665B48"/>
<path d="M781.947 491.36C775.097 489.26 773.086 487.788 771.234 480.775C772.134 475.638 771.064 477.848 774.678 473.961C782.456 471.854 789.007 477.888 792.896 484.327C788.89 488.562 787.415 488.839 781.947 491.36Z" fill="#453E31"/>
<path d="M731.475 461.963C736.825 466.202 738.208 469.824 735.937 476.2C731.096 475.361 730.77 474.337 728.76 470.32C729.178 464.302 728.278 466.968 731.475 461.963Z" fill="#61605D"/>
<path d="M821.904 465.531C824.213 467.909 824.905 469.238 827.789 470.402C830.659 475.317 833.44 479.945 835.971 485.061C836.78 484.109 840.46 482.012 841.765 481.21C845.784 486.003 844.636 486.061 849.699 487.96C854.932 485.339 856.171 481.518 859.629 475.979L868.45 488.695C866.232 495.407 858.364 502.424 853.3 508.268C854.814 510.399 854.266 509.643 856.863 510.991C864.366 508.694 864.588 499.774 873.135 495.396C876.671 494.905 877.937 495.906 881.173 497.433C877.285 523.339 863.009 566.712 843.292 585.582L840.891 583.773C840.173 581.84 839.508 580.846 838.516 579.038C830.138 573.1 813.214 572.831 804.928 578.852C800.635 574.549 783.345 569.289 774.106 564.368C765.076 569.699 751.766 578.57 740.805 575.874C733.484 574.075 731.227 570.926 723.697 571.508L725.107 569.29C726.151 564.199 726.49 566.509 724.402 562.076L717.342 554.245L718.164 550.659C721.139 548.612 721.856 548.567 723.187 545.214C725.536 539.626 727.311 533.833 731.5 529.699L734.527 529.111C745.306 537.618 741.809 543.955 754.727 545.221C757.572 546.503 757.95 546.49 760.964 547.331C762.857 546.495 768.533 537.951 771.861 534.893C775.162 528.776 780.068 523.226 784.453 517.764C783.618 510.195 782.587 508.124 777.589 502.475C778.502 497.123 779.285 496.25 781.947 491.36C787.415 488.839 788.89 488.562 792.896 484.327L792.282 480.644C795.309 474.195 798.676 472.506 804.17 467.558C811.96 470.263 815.262 471.375 821.904 465.531Z" fill="#4D4738"/>
<path d="M821.904 465.531C824.213 467.909 824.905 469.238 827.789 470.402C830.659 475.317 833.44 479.945 835.971 485.061C836.78 484.109 840.46 482.012 841.765 481.21C845.784 486.003 844.636 486.061 849.699 487.96C854.932 485.339 856.171 481.518 859.629 475.979L868.45 488.695C866.232 495.407 858.364 502.424 853.3 508.268C850.926 528.758 840.929 547.448 819.229 550.607C814.596 551.999 816.814 552.09 812.378 550.478L811.334 548.237C807.484 543.975 808.985 544.264 804.718 544.02C800.464 548.254 799.864 548.906 794.305 551.039C788.694 550.701 784.427 545.849 780.669 541.789C779.377 538.625 775.044 536.761 771.861 534.893C775.162 528.776 780.068 523.226 784.453 517.764C783.618 510.195 782.587 508.124 777.589 502.475C778.502 497.123 779.285 496.25 781.947 491.36C787.415 488.839 788.89 488.562 792.896 484.327L792.282 480.644C795.309 474.195 798.676 472.506 804.17 467.558C811.96 470.263 815.262 471.375 821.904 465.531Z" fill="#6E6655"/>
<path d="M859.629 475.979L868.45 488.695C866.232 495.407 858.364 502.424 853.3 508.268C850.926 528.758 840.929 547.448 819.229 550.607C810.721 526.547 819.464 519.362 829.394 496.326L835.971 485.061C836.78 484.109 840.46 482.012 841.765 481.21C845.784 486.003 844.636 486.061 849.699 487.96C854.932 485.339 856.171 481.518 859.629 475.979Z" fill="#22221E"/>
<path d="M841.086 497.098C843.082 495.467 846.005 495.751 847.649 497.736C849.28 499.72 849.032 502.664 847.075 504.333C845.092 506.026 842.116 505.766 840.446 503.754C838.789 501.742 839.076 498.751 841.086 497.098Z" fill="#4D4738"/>
<path d="M821.904 465.531C824.213 467.909 824.905 469.238 827.789 470.402C830.659 475.317 833.44 479.945 835.971 485.061L829.394 496.326C819.568 494.812 814.075 489.271 804.915 484.538C789.517 492.441 790.455 502.528 777.589 502.475C778.502 497.123 779.285 496.25 781.947 491.36C787.415 488.839 788.89 488.562 792.896 484.327L792.282 480.644C795.309 474.195 798.676 472.506 804.17 467.558C811.96 470.263 815.262 471.375 821.904 465.531Z" fill="#857E71"/>
<path d="M723.187 545.214C725.536 539.626 727.311 533.833 731.5 529.699L734.527 529.111C745.306 537.618 741.809 543.955 754.727 545.221C757.572 546.503 757.95 546.49 760.964 547.331C762.857 546.495 768.533 537.951 771.861 534.893C775.044 536.761 779.377 538.625 780.669 541.789C760.808 557.085 760.183 543.59 747.864 547.708C742.475 553.816 742.344 557.866 734.606 566.335L731.266 566.462L725.107 569.29C726.151 564.199 726.49 566.509 724.402 562.076L717.342 554.245L718.164 550.659C721.139 548.612 721.856 548.567 723.187 545.214Z" fill="#665B48"/>
<path d="M695.316 380.532C704.098 380.975 712.411 381.631 721.01 381.002C726.086 380.631 743.389 371.619 745.894 372.774C751.845 375.513 755.329 385.769 762.48 367.861C768.13 366.258 771.418 372.663 775.02 376.758C791.657 380.425 809.156 384.571 825.95 387.148C840.644 389.404 856.759 387.748 871.322 391.706C876.724 393.176 878.577 393.361 881.357 398.352C884.28 403.579 884.645 410.991 885.219 416.938L881.487 418.673C881.448 425.458 881.239 432.537 881.722 439.279C882.401 451.467 878.407 481.542 872.261 491.47L870.174 491.581L868.45 488.695L859.629 475.979C856.171 481.518 854.932 485.339 849.699 487.96C844.636 486.061 845.784 486.003 841.765 481.21C840.46 482.012 836.78 484.109 835.971 485.061C833.44 479.945 830.659 475.317 827.789 470.402L832.395 466.215C831.273 464.819 828.859 459.582 827.906 457.662L833.295 454.701C827.867 445.959 823.274 451.58 816.188 442.948L816.88 438.223L814.596 436.016L814.687 432.428C808.867 427.646 807.837 416.279 789.946 402.649C781.151 408.753 778.241 409.51 768.259 411.987C754.022 410.448 746.39 398.216 733.707 405.37C730.575 406.948 730.51 407.196 727.182 408.131L723.046 404.703C717.434 398.739 715.399 395.612 707.334 398.997C706.852 403.127 706.643 408.439 704.803 411.996C697.796 408.353 692.72 406.191 690.24 398.304L691.911 385.731C692.341 384.748 694.586 381.611 695.316 380.532Z" fill="#0B0B0A"/>
<path d="M823.469 420.332C849.685 399.057 832.708 413.9 834.248 396.386L837.236 395.441C844.165 397.675 856.836 417.534 862.369 425.028C869.624 422.167 873.971 420.721 881.487 418.673C881.448 425.458 881.239 432.537 881.722 439.279C882.401 451.467 878.407 481.542 872.261 491.47L870.174 491.581L868.45 488.695L859.629 475.979C856.171 481.518 854.932 485.339 849.699 487.96C844.636 486.061 845.784 486.003 841.765 481.21C840.46 482.012 836.78 484.109 835.971 485.061C833.44 479.945 830.659 475.317 827.789 470.402L832.395 466.215C831.273 464.819 828.859 459.582 827.906 457.662L833.295 454.701C827.867 445.959 823.274 451.58 816.188 442.948L816.88 438.223L814.596 436.016L814.687 432.428C817.924 426.943 819.307 425.181 823.469 420.332Z" fill="#857E71"/>
<path d="M832.395 466.215C834.861 470.376 838.894 477.688 841.765 481.21C840.46 482.012 836.78 484.109 835.971 485.061C833.44 479.945 830.659 475.317 827.789 470.402L832.395 466.215Z" fill="#665B48"/>
<path d="M278.552 364.875C302.874 355.074 367.179 366.604 395.423 369.784C399.774 370.273 404.699 384.712 406.175 388.705C400.732 389.892 397.478 387.426 392.514 384.223C391.418 383.522 390.328 382.809 389.247 382.086C382.902 386.05 376.439 389.82 369.869 393.393C367.55 393.386 367.259 393.105 364.961 392.523C353.816 398.977 348.797 404.726 339.903 414.01C335.02 411.144 330.096 408.576 325.87 404.841C320.486 407.738 311.568 413.155 305.834 413.905L297.666 413.811L293.57 409.08C288.308 411.046 285.628 411.686 281.14 415.251C278.207 416.067 272.079 412.728 269.284 411.405C258.171 419.395 244.414 436.67 238.546 438.635C227.65 422.881 238.362 396.803 217.427 396.236C215.063 399.083 211.911 402.451 210.529 405.743C206.842 404.276 204.577 404.233 200.636 403.632L198.717 403.015L193.144 403.301C193.513 398.966 193.949 400.898 192.123 397.239C186.849 394.185 180.383 393.581 174.247 392.472C182.323 391.302 181.54 389.194 188.165 382.233L189.256 377.171C193.265 372.654 195.379 372.93 201.139 372.734L202.02 366.461C227.791 364.326 254.413 358.295 278.552 364.875Z" fill="#141412"/>
<path d="M307.983 387.346L313.41 387.353C316.382 384.564 315.248 386.353 315.543 380.999C318.74 383.731 316.914 382.79 321.404 383.488L323.887 385.359L323.444 386.842C321.883 392.197 321.548 392.76 321.732 398.149C323.209 400.704 324.146 402.407 325.87 404.841C320.486 407.738 311.568 413.155 305.834 413.905L297.666 413.811L293.57 409.08C288.308 411.046 285.628 411.686 281.14 415.251C278.207 416.067 272.079 412.728 269.284 411.405C272.535 408.683 271.203 410.362 272.675 405.703C273.369 398.172 274.495 388.949 280.993 384.534C285.63 383.093 288.33 384.686 293.149 386.338C299.903 386.036 301.369 386.06 307.983 387.346Z" fill="#665B48"/>
<path d="M295.674 399.281C300.633 402.143 298.78 400.198 301.382 405.386C299.081 406.427 295.642 407.838 293.57 409.08C288.308 411.046 285.628 411.686 281.14 415.251C278.207 416.067 272.079 412.728 269.284 411.405C272.535 408.683 271.203 410.362 272.675 405.703C283.724 406.3 287.221 406.582 295.674 399.281Z" fill="#453E31"/>
<path d="M293.149 386.338C299.903 386.036 301.369 386.06 307.983 387.346C294.451 387.56 294.694 385.028 289.869 397.367C286.323 400.031 286.413 400.347 281.861 400.689L280.5 398.855C282.576 391.161 286.756 389.884 293.149 386.338Z" fill="#453E31"/>
<path d="M295.674 399.281C301.19 397.715 303.071 396.496 308.023 398.525L310.228 400.742C308.828 404.205 304.952 404.824 301.382 405.386C298.78 400.198 300.633 402.143 295.674 399.281Z" fill="#4D4738"/>
<path d="M331.133 369.818L334.558 368.316C341.49 369.973 343.007 369.903 346.842 376.081C349.681 383.648 358.453 388.007 364.961 392.523C353.816 398.977 348.797 404.726 339.903 414.01C335.02 411.144 330.096 408.576 325.87 404.841C324.146 402.407 323.209 400.704 321.732 398.149C321.548 392.76 321.883 392.197 323.444 386.842L323.887 385.359L321.404 383.488C325.64 377.561 328.479 378.048 331.133 369.818Z" fill="#797361"/>
<path d="M334.558 368.316C341.49 369.973 343.007 369.903 346.842 376.081C344.204 380.35 343.135 381.839 338.281 382.61L335.979 380.532C333.947 375.197 334.306 374.218 334.558 368.316Z" fill="#A19988"/>
<path d="M188.165 382.233L194.339 386.523L193.408 389.661C195.894 392.145 195.508 391.371 199.718 391.999C197.646 396.951 196.509 397.419 198.717 403.015L193.144 403.301C193.513 398.966 193.949 400.898 192.123 397.239C186.849 394.185 180.383 393.581 174.247 392.472C182.323 391.302 181.54 389.194 188.165 382.233Z" fill="#574D3B"/>
<path d="M199.718 391.999C204.041 391.687 205.128 391.319 209.199 393.011C211.81 396.266 211.949 395.269 217.427 396.236C215.063 399.083 211.911 402.451 210.529 405.743C206.842 404.276 204.577 404.233 200.636 403.632L198.717 403.015C196.509 397.419 197.646 396.951 199.718 391.999Z" fill="#857E71"/>
<path d="M315.543 380.999C316.914 375.76 316.833 375.046 320.192 371.048C324.705 368.649 325.762 369.211 331.133 369.818C328.479 378.048 325.64 377.561 321.404 383.488C316.914 382.79 318.74 383.731 315.543 380.999Z" fill="#A19988"/>
<path d="M189.256 377.171C193.265 372.654 195.379 372.93 201.139 372.734C200.276 381.321 200.95 381.449 194.339 386.523L188.165 382.233L189.256 377.171Z" fill="#857E71"/>
<path d="M402.562 443.527C402.797 449.474 401.875 460.254 402.963 464.012C406.229 466.681 404.337 465.803 409.096 466.029C409.783 469.907 410.352 472.858 411.33 476.667L413.993 478.225C407.12 491.66 399.359 486.309 393.579 493.727L394.522 495.628C399.931 497.073 401.974 497.412 407.553 497.933L408.158 499.593L406.009 501.884L403.579 500.021L395.361 504.433L392.939 503.688L392.511 500.303L390.577 493.786L388.924 493.01C379.799 508.952 368.464 533.197 357.609 546.007C355.124 548.884 347.753 557.912 345.159 559.563C341.429 565.739 340.65 566.457 335.125 571.124C330.267 574.989 313.329 589.732 308.988 591.248C283.587 604.201 265.398 608.282 237.45 612.55C235.737 612.811 236.66 612.627 234.585 613.204C232.685 607.961 233.776 609.832 229.416 606.065C227.792 604.025 228.533 603.191 228.738 599.687C231.578 596.42 237.544 587.409 240.294 583.464L237.093 579.887C241.136 577.57 243.607 573.115 249.507 569.317C252.825 565.843 253.98 564.309 256.699 560.328C261.493 554.802 273.247 544.851 279.313 539.151C283.595 537.821 284.46 536.898 287.989 534.289C296.022 525.592 296.679 533.697 303.086 527.811C306.38 533.487 307.884 535.516 309.106 542.154L310.892 543.986C313.708 546.572 314.641 545.792 319.373 546.314C329.144 529.454 342.046 531.126 353.798 506.962C348.732 501.817 346.086 498.461 341.676 492.798C361.243 481.661 359.974 476.941 375.011 461.583C382.712 453.719 392.864 448.379 402.562 443.527Z" fill="#A8A397"/>
<path d="M303.086 527.811C306.38 533.487 307.884 535.516 309.106 542.154L310.892 543.986C308.724 549.117 309.026 549.326 303.372 552.438L307.335 557.468C297.618 568.593 291.271 579.082 275.344 571.541C269.005 568.774 261.513 565.296 256.699 560.328C261.493 554.802 273.247 544.851 279.313 539.151C283.595 537.821 284.46 536.898 287.989 534.289C296.022 525.592 296.679 533.697 303.086 527.811Z" fill="#2F2B22"/>
<path d="M391.165 485.827C397.453 480.945 400.32 469.167 409.096 466.029C409.783 469.907 410.352 472.858 411.33 476.667L413.993 478.225C407.12 491.66 399.359 486.309 393.579 493.727L394.522 495.628C399.931 497.073 401.974 497.412 407.553 497.933L408.158 499.593L406.009 501.884L403.579 500.021L395.361 504.433L392.939 503.688L392.511 500.303C392.482 496.185 391.627 490.075 391.165 485.827Z" fill="#453E31"/>
<path d="M391.165 485.827C391.627 490.075 392.482 496.185 392.511 500.303L390.577 493.786L388.924 493.01C379.799 508.952 368.464 533.197 357.609 546.007C356.592 542.932 355.924 541.321 357.85 537.846C362.966 528.612 383.459 489.401 391.165 485.827Z" fill="#665B48"/>
<path d="M229.416 606.065C232.581 606.341 259.886 605.971 263.321 605.505C272.696 604.234 298.829 588.634 308.988 591.248C283.587 604.201 265.398 608.282 237.45 612.55C235.737 612.811 236.66 612.627 234.585 613.204C232.685 607.961 233.776 609.832 229.416 606.065Z" fill="#8D8675"/>
<path d="M335.125 571.124C334.298 570.571 333.073 569.264 332.301 568.515C332.755 561.158 338.706 559.072 345.159 559.563C341.429 565.739 340.65 566.457 335.125 571.124Z" fill="#797361"/>
<path d="M642.741 389.301C652.215 383.14 682.737 380.815 691.911 385.731L690.24 398.304C692.72 406.191 697.796 408.353 704.803 411.996C706.643 408.439 706.852 403.127 707.334 398.997C715.399 395.612 717.434 398.739 723.046 404.703L727.182 408.131C730.51 407.196 730.575 406.948 733.707 405.37C746.39 398.216 754.022 410.448 768.259 411.987L765.01 416.639C762.1 424.185 754.544 433.989 749.299 440.462L749.103 447.632C732.309 439.167 739.46 457.695 725.014 433.993C718.229 436.317 713.975 436.398 710.178 441.254C714.575 446.446 729.725 438.94 728.551 453.889C725.693 457.444 721.295 460.794 721.243 463.766C718.999 466.982 717.394 469.643 714.458 472.271L709.016 475.468C705.167 474.949 699.778 476.58 695.811 477.477L692.315 472.394L692.393 471.318L690.214 469.612L684.224 472.356C677.569 470.857 677.491 462.395 670.118 463.786C664.05 467.815 667.104 471.164 660.892 474.42L659.588 473.582C659.561 467.711 652.28 463.971 645.99 456.438C645.743 449.338 647.491 446.292 646.708 438.534L643.237 435.956C648.117 427.124 652.867 418.225 657.5 409.259C653.428 402.688 647.439 395.975 642.741 389.301Z" fill="#6E6655"/>
<path d="M642.741 389.301C652.215 383.14 682.737 380.815 691.911 385.731L690.24 398.304L689.196 401.243L690.188 403.097C691.362 405.297 691.949 406.718 692.863 409.074L691.688 412.55L686.664 410.672C683.337 409.436 684.616 409.54 681.275 409.99C680.701 412.426 680.701 411.155 682.084 413.817C683.807 422.326 683.794 425.364 683.454 434.013C683.663 437.726 683.794 439.096 683.337 442.897L684.994 446.893C686.782 453.198 687.278 456.161 691.245 461.547L690.214 469.612L684.224 472.356C677.569 470.857 677.491 462.395 670.118 463.786C664.05 467.815 667.104 471.164 660.892 474.42L659.588 473.582C659.561 467.711 652.28 463.971 645.99 456.438C645.743 449.338 647.491 446.292 646.708 438.534L643.237 435.956C648.117 427.124 652.867 418.225 657.5 409.259C653.428 402.688 647.439 395.975 642.741 389.301Z" fill="#8D8675"/>
<path d="M691.688 412.55L692.863 409.074C691.949 406.718 691.362 405.297 690.188 403.097L689.196 401.243L690.24 398.304C692.72 406.191 697.796 408.353 704.803 411.996C706.108 416.475 706.003 414.129 704.006 419.254C700.052 422.323 702.257 421.474 697.09 421.67C693.267 419.1 692.889 418.276 691.688 412.55Z" fill="#857E71"/>
<path d="M643.237 435.956L646.708 438.534C647.491 446.292 645.743 449.338 645.99 456.438C652.28 463.971 659.561 467.711 659.588 473.582L660.892 474.42C667.104 471.164 664.05 467.815 670.118 463.786C677.491 462.395 677.569 470.857 684.224 472.356L690.214 469.612L692.393 471.318L692.315 472.394L695.811 477.477L694.715 480.366C689.391 484.517 684.132 488.454 681.209 494.839C681.587 498.304 681.992 504.586 683.27 507.513C681.431 512.991 679.826 517.831 677.581 523.193C682.983 528.318 688.921 534.239 694.675 538.778C703.066 550.481 708.755 547.962 717.342 554.245L724.402 562.076C726.49 566.509 726.151 564.199 725.107 569.29L723.697 571.508C710.727 582.031 707.569 581.847 705.651 598.639L704.333 603.652C679.044 594.275 657.944 571.35 645.73 547.612C639.976 539.892 632.681 523.36 628.362 514.114L633.255 512.652L633.908 510.631C636.022 504.164 635.017 504.7 640.249 500.127L646.879 490.626C643.942 471.74 642.846 465.742 635.33 448.283C637.836 443.632 640.249 440.265 643.237 435.956Z" fill="#A19988"/>
<path d="M628.362 514.114L633.255 512.652L633.908 510.631C636.022 504.164 635.017 504.7 640.249 500.127C644.673 506.408 669.01 510.897 668.161 526.106C665.956 530.71 664.534 531.511 659.693 533.92L662.616 541.625C658.414 543.006 656.887 543.746 653.233 546.221C650.115 545.945 650.18 545.809 647.283 544.49L645.73 547.612C639.976 539.892 632.681 523.36 628.362 514.114Z" fill="#574D3B"/>
<path d="M647.283 544.49C647.165 539.499 646.407 540.134 648.573 536.545C652.697 534.95 655.308 534.676 659.693 533.92L662.616 541.625C658.414 543.006 656.887 543.746 653.233 546.221C650.115 545.945 650.18 545.809 647.283 544.49Z" fill="#B3AC9D"/>
<path d="M662.616 541.625L666.894 540.911L667.716 543.78C629.312 550.636 696.295 596.725 705.651 598.639L704.333 603.652C679.044 594.275 657.944 571.35 645.73 547.612L647.283 544.49C650.18 545.809 650.115 545.945 653.233 546.221C656.887 543.746 658.414 543.006 662.616 541.625Z" fill="#665B48"/>
<path d="M666.894 540.911C669.817 536.373 667.899 537.987 672.871 535.918C678.025 536.833 675.794 535.794 679.813 539.148L679.604 541.875C674.555 544.756 673.992 543.791 667.716 543.78L666.894 540.911Z" fill="#857D6C"/>
<path d="M241.268 492.819C245.417 493.251 248.471 493.211 252.19 495.099C250.732 502.763 248.567 495.633 250.362 504.735C254.503 510.697 262.465 514.537 269.022 517.625C271.359 512.616 273.05 507.333 277.343 504.298C282.025 503.746 280.485 503.857 285.35 506.029C289.223 505.992 293.532 505.74 297.302 506.282C298.603 515.047 299.164 519.603 303.086 527.811C296.679 533.697 296.022 525.592 287.989 534.289C284.46 536.898 283.595 537.821 279.313 539.151C273.247 544.851 261.493 554.802 256.699 560.328C253.98 564.309 252.825 565.843 249.507 569.317C243.607 573.115 241.136 577.57 237.093 579.887L240.294 583.464C237.544 587.409 231.578 596.42 228.738 599.687C226.086 599.18 224.173 598.478 221.607 597.642L212.028 593.706C201.454 588.12 207.781 583.161 189.285 583.833L188.007 577.534C188.874 572.47 192.167 569.966 195.807 566.061C199.296 561.564 204.936 550.356 204.37 544.71C198.678 537.996 199.852 540.131 201.295 531.615C201.353 531.469 201.411 531.324 201.47 531.178C210.886 517.017 206.043 506.921 219.442 495.838L226.652 498.543C230.945 500.151 231.551 500.214 235.872 498.238C237.889 496.492 239.434 494.751 241.268 492.819Z" fill="#A9A292"/>
<path d="M195.807 566.061C213.868 576.141 218.22 568.537 237.093 579.887L240.294 583.464C237.544 587.409 231.578 596.42 228.738 599.687C226.086 599.18 224.173 598.478 221.607 597.642L212.028 593.706C201.454 588.12 207.781 583.161 189.285 583.833L188.007 577.534C188.874 572.47 192.167 569.966 195.807 566.061Z" fill="#2F2B22"/>
<path d="M612.507 467.692C609.518 459.075 605.108 448.003 603.19 439.284C599.014 420.242 607.548 362.105 638.448 382.72C641.123 385.481 641.606 385.558 642.741 389.301C647.439 395.975 653.428 402.688 657.5 409.259C652.867 418.225 648.117 427.124 643.237 435.956C640.249 440.265 637.836 443.632 635.33 448.283C642.846 465.742 643.942 471.74 646.879 490.626L640.249 500.127C635.017 504.7 636.022 504.164 633.908 510.631L633.255 512.652L628.362 514.114C623.234 503.405 621.002 498.36 617.504 487.102C615.077 479.698 614.086 475.331 612.507 467.692Z" fill="#141412"/>
<path d="M217.427 396.236C238.362 396.803 227.65 422.881 238.546 438.635L238.644 440.796C234.588 444.077 234.109 444.613 232.83 449.681C233.327 454.39 234.681 456.006 237.048 460.26C230.883 469.986 219.905 482.938 215.112 491.33C214.77 489.907 214.107 488.148 213.63 486.724C202.971 484.794 199.256 483.519 189.746 477.938C158.859 459.81 179.469 451.559 187.665 435.555L190.431 435.763C202.12 426.337 206.859 420.16 210.529 405.743C211.911 402.451 215.063 399.083 217.427 396.236Z" fill="#8D8675"/>
<path d="M723.697 571.508C731.227 570.926 733.484 574.075 740.805 575.874C751.766 578.57 765.076 569.699 774.106 564.368C783.345 569.289 800.635 574.549 804.928 578.852L803.543 579.581C786.828 588.631 783.33 601.898 765.688 586.7C756.515 593.066 751.269 596.38 747.446 607.568C746.01 612.827 747.211 611.422 743.427 614.077C731.265 611.794 716.117 607.315 704.333 603.652L705.651 598.639C707.569 581.847 710.727 582.031 723.697 571.508Z" fill="#353430"/>
<path d="M804.928 578.852C813.214 572.831 830.138 573.1 838.516 579.038C839.508 580.846 840.173 581.84 840.891 583.773C827.659 594.036 812.183 602.304 795.702 605.661C779.195 609.021 764.044 604.308 747.446 607.568C751.269 596.38 756.515 593.066 765.688 586.7C783.33 601.898 786.828 588.631 803.543 579.581L804.928 578.852Z" fill="#B3AC9D"/>
<path d="M189.285 583.833C207.781 583.161 201.454 588.12 212.028 593.706L221.607 597.642C224.173 598.478 226.086 599.18 228.738 599.687C228.533 603.191 227.792 604.025 229.416 606.065C233.776 609.832 232.685 607.961 234.585 613.204C216.029 613.34 197 612.424 179.187 606.784C180.959 593.542 189.332 597.522 189.285 583.833Z" fill="#4D4738"/>
<path d="M179.187 606.784C176.699 605.502 177.792 606.055 176.072 602.702C177.682 595.483 183.939 594.874 186.156 587.543C190.913 571.814 184.587 569.065 179.362 559.222C183.142 560.558 182.65 561.034 186.156 560.424C187.923 555.889 185.377 545.487 185.003 539.149C190.069 533.848 195.345 537.122 201.295 531.615C199.852 540.131 198.678 537.996 204.37 544.71C204.936 550.356 199.296 561.564 195.807 566.061C192.167 569.966 188.874 572.47 188.007 577.534L189.285 583.833C189.332 597.522 180.959 593.542 179.187 606.784Z" fill="#B3AC9D"/>
<path d="M840.891 583.773L843.292 585.582C830.269 599.667 807.603 607.85 789.987 615.343C771.535 611.844 761.787 614.798 743.427 614.077C747.211 611.422 746.01 612.827 747.446 607.568C764.044 604.308 779.195 609.021 795.702 605.661C812.183 602.304 827.659 594.036 840.891 583.773Z" fill="#756D63"/>
<path d="M155.775 374.582C165.706 372.172 177.364 370.231 187.515 368.291L189.256 377.171L188.165 382.233C181.54 389.194 182.323 391.302 174.247 392.472C165.519 388.58 162.727 386.722 156.905 379.188L155.775 374.582Z" fill="#1F1D18"/>
<path d="M612.507 467.692C614.086 475.331 615.077 479.698 617.504 487.102L616.303 488.392C614.371 490.504 613.615 491.933 612.127 494.385C608.643 495.912 607.325 495.239 603.893 492.899L599.065 494.139C598.53 490.845 597.394 486.733 596.572 483.407L601.192 480.671C603.867 464.873 604.312 475.519 612.507 467.692Z" fill="#2F2B22"/>
<path d="M129.718 385.29L131.267 388.31C122.361 397.118 128.389 400.534 124.035 412.334C122.272 417.109 118.071 422.468 114.99 426.652L113.891 426.299L112.338 423.186C113.421 411.259 114.69 404.907 118.624 393.776C122.025 390.821 126.068 387.997 129.718 385.29Z" fill="#2A2928"/>
<path d="M638.448 382.72C657.343 378.776 676.252 376.278 695.316 380.532C694.586 381.611 692.341 384.748 691.911 385.731C682.737 380.815 652.215 383.14 642.741 389.301C641.606 385.558 641.123 385.481 638.448 382.72Z" fill="#61605D"/>
<path d="M881.487 418.673L885.219 416.938C884.436 423.883 888.531 439.872 890.136 447.489C889.471 450.27 888.857 453.294 887.944 455.972L884.695 454.657C882.411 451.56 882.427 443.622 881.722 439.279C881.239 432.537 881.448 425.458 881.487 418.673Z" fill="#32312B"/>
<path d="M114.99 426.652C113.855 438.685 113.672 450.726 111.723 462.652C109.606 456.921 110.348 429.328 112.338 423.186L113.891 426.299L114.99 426.652Z" fill="#A9A292"/>
<path d="M129.718 385.29C135.74 379.16 147.298 375.279 155.775 374.582L156.905 379.188C144.331 376.342 139.287 385.193 131.267 388.31L129.718 385.29Z" fill="#61605D"/>
<path d="M187.515 368.291C192.985 367.223 196.544 366.925 202.02 366.461L201.139 372.734C195.379 372.93 193.265 372.654 189.256 377.171L187.515 368.291Z" fill="#2F2B22"/>
<path d="M890.136 447.489C894.429 452.433 899.533 451.486 905.614 455.864L905.444 456.806C899.246 456.973 891.86 454.772 887.11 457.222L887.944 455.972C888.857 453.294 889.471 450.27 890.136 447.489Z" fill="#B3AC9D"/>
<path d="M114.105 507.095C114.068 503.01 113.476 499.46 115.522 496.126L117.727 496.513C123.299 510.606 125.234 523.828 129.535 537.876L131.725 544.509L131.015 549.531L125.991 549.98C118.331 538.755 116.059 520.378 114.105 507.095Z" fill="#6E6655"/>
<path d="M124.195 437.473C134.505 439.857 144.838 442.387 146.696 454C135.348 453.926 128.749 447.772 124.195 437.473Z" fill="#B3AC9D"/>
<path d="M183.191 485.62C185.383 485.335 184.895 485.519 187.203 486.117C188.511 488.738 186.53 503.407 186.19 507.911C180.765 503.324 177.008 499.897 176.865 492.477C179.047 487.379 178.014 489.108 183.191 485.62Z" fill="#B3AC9D"/>
<path d="M125.991 549.98L131.015 549.531C133.72 554.925 146.863 576.005 145.903 579.039C136.874 572.043 130.635 560.352 125.991 549.98Z" fill="#857E71"/>
<path d="M129.535 537.876C136.368 536.188 147.347 526.94 151.753 528.729C143.987 542.832 142.686 538.682 131.725 544.509L129.535 537.876Z" fill="#A9A292"/>
<path d="M154.927 457.769C159.772 458.566 161.533 460.407 162.806 464.907C160.682 470.367 161.606 468.541 156.395 472.526C151.217 472.252 150.352 472.67 148.572 468.167C150.034 463.019 151.39 462.019 154.927 457.769Z" fill="#B3AC9D"/>
<path d="M114.105 507.095C112.758 501.563 110.122 481.397 113.93 477.096C110.292 482.531 115.082 478.325 115.715 482.199C116.373 486.22 117.2 492.609 117.727 496.513L115.522 496.126C113.476 499.46 114.068 503.01 114.105 507.095Z" fill="#8D8675"/>
<path d="M151.139 582.959C159.739 585.371 163.213 588.959 165.378 597.792C157.622 595.348 151.395 591.834 151.139 582.959Z" fill="#4D4738"/>
</g>
<defs>
<clipPath id="clip0_56_9">
<rect width="1000" height="1000" fill="white"/>
</clipPath>
</defs>
</svg>
